<?xml version="1.0" encoding="UTF-8"?>
<svg id="Layer_1" data-name="Layer 1" xmlns="http://www.w3.org/2000/svg" version="1.1" viewBox="0 0 1000 1000">
  <defs>
    <style>
      .cls-1 {
        fill: #ff4a17;
        stroke-width: 0px;
      }
    </style>
  </defs>
  <g>
    <path class="cls-1" d="M152.4,386.5c16.5,0,32.1,6.4,43.7,18.1l44.2,44.2c24.1,24.1,24.1,63.3,0,87.5l-44.2,44.2c-11.7,11.7-27.2,18.1-43.7,18.1s-32.1-6.4-43.7-18.1l-44.2-44.2c-24.1-24.1-24.1-63.3,0-87.5l44.2-44.2c11.7-11.7,27.2-18.1,43.7-18.1M152.4,364.8c-21.4,0-42.7,8.1-59,24.4l-44.2,44.2c-32.6,32.6-32.6,85.4,0,118l44.2,44.2c16.3,16.3,37.6,24.4,59,24.4s42.7-8.1,59-24.4l44.2-44.2c32.6-32.6,32.6-85.4,0-118l-44.2-44.2c-16.3-16.3-37.7-24.4-59-24.4h0Z"/>
    <path class="cls-1" d="M92.9,539l-16.2-16.2c-2.1-2.5-10.5-13.3-9.7-29.2.9-17.9,13.1-28.5,15.1-30.3l46.5-46.5c2.5-2.1,14.4-11.2,31.4-9.7,13.2,1.2,21.9,8.2,24.9,10.8l14.1,15.1-25.4,24.3-16.2-10.8,14.1-14.1c-3.7-2.9-9.8-6.9-17.3-6.5-5.6.3-9.6,3-22.7,15.1-9,8.4-14.3,13.8-26.4,26.5-11.5,12-17.2,18.1-17.9,24.3-.9,7.7,2.7,14.4,5.4,18.4l28.1-27-11.9-11.9,54.8-3.8-70.5,71.4h0Z"/>
    <path class="cls-1" d="M213.4,447.4l16.2,16.2c2.1,2.5,10.5,13.3,9.7,29.2-.9,17.9-13.1,28.5-15.1,30.3l-46.5,46.5c-2.5,2.1-14.4,11.2-31.4,9.7-13.2-1.2-21.9-8.2-24.9-10.8l-14.1-15.1,25.4-24.3,16.2,10.8-14.1,14.1c3.7,2.9,9.8,6.9,17.3,6.5,5.6-.3,9.6-3,22.7-15.1,9-8.4,14.3-13.8,26.4-26.5,11.5-12,17.2-18.1,17.9-24.3.9-7.7-2.7-14.4-5.4-18.4l-28.1,27,11.9,11.9-54.8,3.8,70.5-71.4h0Z"/>
  </g>
  <g>
    <path class="cls-1" d="M369.3,431.1h48.9c5,0,9.3,3,13,8.9.6,2.2.9,3.8.9,4.6v3.4c0,4.9-3.1,9-9.2,12.3-2,.8-3.9,1.2-5.6,1.2h-41.1c-15.4,0-26.8,6.2-34.1,18.5-1.9,4.1-2.9,8.3-2.9,12.5,0,12.1,7.1,21.4,21.2,27.9,5,1.8,9.6,2.6,13.9,2.6h27.2v-15.4c0-8.1,3.2-13.5,9.6-16.1,1.6-.9,3.4-1.3,5.3-1.3h1.3c6.7,0,11.4,3.8,14.3,11.4.2.9.3,1.6.3,2.1v36.5c0,4.7-2.9,8.7-8.8,12-1.7.8-3.2,1.2-4.6,1.2h-51c-13.4,0-26.5-5.4-39.4-16.1-7.3-7.5-11.8-13.3-13.4-17.6-4.4-8.7-6.6-17.1-6.6-25.1v-4.5c0-14.6,6.1-28.3,18.3-41.2,13.1-11.9,27.3-17.8,42.7-17.8Z"/>
    <path class="cls-1" d="M455,431.1h95.5c5.2,0,9.6,3,13,9.1.6,1.9.9,3.3.9,4.4v3.4c0,4.9-3.1,9-9.2,12.3-2,.8-3.9,1.2-5.6,1.2h-78.2v15.6h60.4c7.7,0,12.9,3,15.5,9.1.8,1.8,1.2,3.4,1.2,4.9v2.1c0,6.2-3.6,10.8-10.9,13.7-1.2.3-2.3.5-3.4.5h-62.8v15.6h76.5c9,0,14.5,4.4,16.6,13.1v4.1c0,4.7-2.9,8.7-8.8,12-1.7.8-3.2,1.2-4.6,1.2h-96.7c-5.2,0-9.4-3.1-12.7-9.4-.6-1.7-.9-3.1-.9-4.4v-94.4c0-6.2,3.6-10.8,10.9-13.7,1.3-.3,2.4-.5,3.4-.5Z"/>
    <path class="cls-1" d="M587.4,431.1h95.5c5.2,0,9.6,3,13,9.1.6,1.9.9,3.3.9,4.4v3.4c0,4.9-3.1,9-9.2,12.3-2,.8-3.9,1.2-5.6,1.2h-78.2v15.6h60.4c7.7,0,12.9,3,15.5,9.1.8,1.8,1.2,3.4,1.2,4.9v2.1c0,6.2-3.6,10.8-10.9,13.7-1.2.3-2.3.5-3.4.5h-62.8v15.6h76.5c9,0,14.5,4.4,16.6,13.1v4.1c0,4.7-2.9,8.7-8.8,12-1.7.8-3.2,1.2-4.6,1.2h-96.7c-5.2,0-9.4-3.1-12.7-9.4-.6-1.7-.9-3.1-.9-4.4v-94.4c0-6.2,3.6-10.8,10.9-13.7,1.3-.3,2.4-.5,3.4-.5Z"/>
    <path class="cls-1" d="M720.2,431.1h1c6.2,0,10.9,3.4,14.1,10.3.5,1.8.8,3.4.8,5v22.9c45-23.4,69.5-36,73.6-37.7,1.2-.3,2.3-.5,3.4-.5h1.7c6.5,0,11.2,3.8,14.1,11.3.2.9.3,1.7.3,2.2v3.3c0,5.4-3.6,9.8-10.9,13.2-39.8,20.7-59.9,31.1-60.2,31.1v.2c41.7,21.3,63.6,32.7,65.7,34.1,3.6,3.6,5.4,7,5.4,10.2v3.3c0,5.2-3.2,9.4-9.5,12.5-1.7.6-3.1.9-4.4.9h-2.6c-2.5,0-9.2-3-20.2-9.1l-56.3-29.1v22.9c0,7.2-3.8,12.2-11.4,14.9-1.3.3-2.4.5-3.4.5h-.5c-7.6,0-12.6-4-15.1-12-.2-.6-.3-1.3-.3-1.9v-94.6c0-4.8,2.8-8.9,8.3-12.2,2.2-1.1,4.4-1.7,6.6-1.7Z"/>
    <path class="cls-1" d="M852,431.1h95.5c5.2,0,9.6,3,13,9.1.6,1.9.9,3.3.9,4.4v3.4c0,4.1-3.6,9.2-10.9,15.4-4.8,5-24.7,24.8-59.5,59.5h-.3v.3h53.6c8.7,0,14.2,3.7,16.6,11.1.3.6.5,1.5.5,2.6v3.4c0,4.7-2.9,8.7-8.8,12-1.7.8-3.2,1.2-4.6,1.2h-96.7c-5.2,0-9.4-3.1-12.7-9.4-.6-1.7-.9-3.1-.9-4.4v-2.6c0-4.7,3.6-10.1,10.9-16.1,13.7-13.8,33.5-33.6,59.5-59.5h-54.8c-7.2,0-12.3-3.6-15.1-10.8-.3-1.5-.5-2.5-.5-3.2v-2.1c0-6.2,3.6-10.8,10.9-13.7,1.3-.3,2.4-.5,3.4-.5Z"/>
  </g>
</svg>